<mxfile host="app.diagrams.net" agent="Mozilla/5.0 (Windows NT 10.0; Win64; x64) AppleWebKit/537.36 (KHTML, like Gecko) Chrome/137.0.0.0 Safari/537.36 Edg/137.0.0.0" version="27.1.6">
  <diagram name="Trang-1" id="ISEiL_6-nZw2odjBh_8Y">
    <mxGraphModel dx="2124" dy="496" grid="1" gridSize="10" guides="1" tooltips="1" connect="1" arrows="1" fold="1" page="1" pageScale="1" pageWidth="827" pageHeight="1169" math="0" shadow="0">
      <root>
        <mxCell id="0" />
        <mxCell id="1" parent="0" />
        <mxCell id="wq8xOA5Y23-_IPNCgSVE-89" style="edgeStyle=orthogonalEdgeStyle;rounded=0;orthogonalLoop=1;jettySize=auto;html=1;" edge="1" parent="1" source="G8lySZ5ok2vdlaUdM1z0-3" target="wq8xOA5Y23-_IPNCgSVE-88">
          <mxGeometry relative="1" as="geometry" />
        </mxCell>
        <mxCell id="G8lySZ5ok2vdlaUdM1z0-3" value="Memory" style="rounded=0;whiteSpace=wrap;html=1;" parent="1" vertex="1">
          <mxGeometry x="618" y="120" width="134" height="250" as="geometry" />
        </mxCell>
        <mxCell id="wq8xOA5Y23-_IPNCgSVE-84" style="edgeStyle=orthogonalEdgeStyle;rounded=0;orthogonalLoop=1;jettySize=auto;html=1;" edge="1" parent="1" source="G8lySZ5ok2vdlaUdM1z0-6" target="G8lySZ5ok2vdlaUdM1z0-12">
          <mxGeometry relative="1" as="geometry" />
        </mxCell>
        <mxCell id="wq8xOA5Y23-_IPNCgSVE-100" style="edgeStyle=orthogonalEdgeStyle;rounded=0;orthogonalLoop=1;jettySize=auto;html=1;entryX=0.75;entryY=1;entryDx=0;entryDy=0;" edge="1" parent="1" source="G8lySZ5ok2vdlaUdM1z0-6" target="wq8xOA5Y23-_IPNCgSVE-98">
          <mxGeometry relative="1" as="geometry">
            <Array as="points">
              <mxPoint y="420" />
              <mxPoint y="230" />
              <mxPoint x="45" y="230" />
            </Array>
          </mxGeometry>
        </mxCell>
        <mxCell id="wq8xOA5Y23-_IPNCgSVE-114" style="edgeStyle=orthogonalEdgeStyle;rounded=0;orthogonalLoop=1;jettySize=auto;html=1;entryX=0.75;entryY=0;entryDx=0;entryDy=0;" edge="1" parent="1" source="G8lySZ5ok2vdlaUdM1z0-6" target="wq8xOA5Y23-_IPNCgSVE-40">
          <mxGeometry relative="1" as="geometry">
            <mxPoint x="-130" y="220" as="targetPoint" />
          </mxGeometry>
        </mxCell>
        <mxCell id="G8lySZ5ok2vdlaUdM1z0-6" value="ACC" style="rounded=0;whiteSpace=wrap;html=1;" parent="1" vertex="1">
          <mxGeometry x="165" y="400" width="50" height="40" as="geometry" />
        </mxCell>
        <mxCell id="G8lySZ5ok2vdlaUdM1z0-86" style="edgeStyle=orthogonalEdgeStyle;rounded=0;orthogonalLoop=1;jettySize=auto;html=1;" parent="1" source="G8lySZ5ok2vdlaUdM1z0-10" target="G8lySZ5ok2vdlaUdM1z0-1" edge="1">
          <mxGeometry relative="1" as="geometry">
            <Array as="points" />
          </mxGeometry>
        </mxCell>
        <mxCell id="G8lySZ5ok2vdlaUdM1z0-10" value="Flags" style="rounded=0;whiteSpace=wrap;html=1;" parent="1" vertex="1">
          <mxGeometry x="280" y="320" width="40" height="40" as="geometry" />
        </mxCell>
        <mxCell id="wq8xOA5Y23-_IPNCgSVE-85" style="edgeStyle=orthogonalEdgeStyle;rounded=0;orthogonalLoop=1;jettySize=auto;html=1;" edge="1" parent="1" source="G8lySZ5ok2vdlaUdM1z0-12" target="G8lySZ5ok2vdlaUdM1z0-14">
          <mxGeometry relative="1" as="geometry" />
        </mxCell>
        <mxCell id="G8lySZ5ok2vdlaUdM1z0-12" value="AR" style="rounded=0;whiteSpace=wrap;html=1;" parent="1" vertex="1">
          <mxGeometry x="310" y="400" width="30" height="40" as="geometry" />
        </mxCell>
        <mxCell id="wq8xOA5Y23-_IPNCgSVE-82" style="edgeStyle=orthogonalEdgeStyle;rounded=0;orthogonalLoop=1;jettySize=auto;html=1;entryX=0.25;entryY=1;entryDx=0;entryDy=0;" edge="1" parent="1" source="G8lySZ5ok2vdlaUdM1z0-13" target="G8lySZ5ok2vdlaUdM1z0-4">
          <mxGeometry relative="1" as="geometry">
            <Array as="points">
              <mxPoint x="220" y="190" />
            </Array>
          </mxGeometry>
        </mxCell>
        <mxCell id="G8lySZ5ok2vdlaUdM1z0-13" value="DR" style="rounded=0;whiteSpace=wrap;html=1;" parent="1" vertex="1">
          <mxGeometry x="205" y="165" width="30" height="40" as="geometry" />
        </mxCell>
        <mxCell id="wq8xOA5Y23-_IPNCgSVE-15" style="edgeStyle=orthogonalEdgeStyle;rounded=0;orthogonalLoop=1;jettySize=auto;html=1;" edge="1" parent="1" source="G8lySZ5ok2vdlaUdM1z0-14" target="G8lySZ5ok2vdlaUdM1z0-3">
          <mxGeometry relative="1" as="geometry">
            <Array as="points">
              <mxPoint x="560" y="420" />
              <mxPoint x="560" y="270" />
            </Array>
          </mxGeometry>
        </mxCell>
        <mxCell id="wq8xOA5Y23-_IPNCgSVE-17" style="edgeStyle=orthogonalEdgeStyle;rounded=0;orthogonalLoop=1;jettySize=auto;html=1;" edge="1" parent="1" source="G8lySZ5ok2vdlaUdM1z0-14" target="G8lySZ5ok2vdlaUdM1z0-17">
          <mxGeometry relative="1" as="geometry">
            <Array as="points">
              <mxPoint x="560" y="420" />
              <mxPoint x="560" y="490" />
            </Array>
          </mxGeometry>
        </mxCell>
        <mxCell id="wq8xOA5Y23-_IPNCgSVE-86" style="edgeStyle=orthogonalEdgeStyle;rounded=0;orthogonalLoop=1;jettySize=auto;html=1;" edge="1" parent="1" source="G8lySZ5ok2vdlaUdM1z0-14" target="G8lySZ5ok2vdlaUdM1z0-15">
          <mxGeometry relative="1" as="geometry" />
        </mxCell>
        <mxCell id="G8lySZ5ok2vdlaUdM1z0-14" value="Address Decoder" style="rounded=0;whiteSpace=wrap;html=1;" parent="1" vertex="1">
          <mxGeometry x="400" y="390" width="120" height="60" as="geometry" />
        </mxCell>
        <mxCell id="G8lySZ5ok2vdlaUdM1z0-102" style="edgeStyle=orthogonalEdgeStyle;rounded=0;orthogonalLoop=1;jettySize=auto;html=1;entryX=0.75;entryY=1;entryDx=0;entryDy=0;" parent="1" source="G8lySZ5ok2vdlaUdM1z0-15" target="G8lySZ5ok2vdlaUdM1z0-99" edge="1">
          <mxGeometry relative="1" as="geometry">
            <Array as="points">
              <mxPoint x="790" y="420" />
              <mxPoint x="790" y="50" />
              <mxPoint x="190" y="50" />
            </Array>
          </mxGeometry>
        </mxCell>
        <mxCell id="G8lySZ5ok2vdlaUdM1z0-15" value="Input" style="rounded=0;whiteSpace=wrap;html=1;" parent="1" vertex="1">
          <mxGeometry x="620" y="400" width="130" height="40" as="geometry" />
        </mxCell>
        <mxCell id="G8lySZ5ok2vdlaUdM1z0-27" value="" style="group" parent="1" vertex="1" connectable="0">
          <mxGeometry x="130" y="310" width="120" height="60" as="geometry" />
        </mxCell>
        <mxCell id="G8lySZ5ok2vdlaUdM1z0-4" value="" style="shape=trapezoid;perimeter=trapezoidPerimeter;whiteSpace=wrap;html=1;fixedSize=1;rotation=-180;" parent="G8lySZ5ok2vdlaUdM1z0-27" vertex="1">
          <mxGeometry width="120" height="60" as="geometry" />
        </mxCell>
        <mxCell id="G8lySZ5ok2vdlaUdM1z0-5" value="ALU" style="text;html=1;align=center;verticalAlign=middle;resizable=0;points=[];autosize=1;strokeColor=none;fillColor=none;" parent="G8lySZ5ok2vdlaUdM1z0-27" vertex="1">
          <mxGeometry x="35" y="15" width="50" height="30" as="geometry" />
        </mxCell>
        <mxCell id="G8lySZ5ok2vdlaUdM1z0-77" style="edgeStyle=orthogonalEdgeStyle;rounded=0;orthogonalLoop=1;jettySize=auto;html=1;entryX=0.25;entryY=1;entryDx=0;entryDy=0;" parent="1" source="G8lySZ5ok2vdlaUdM1z0-3" target="G8lySZ5ok2vdlaUdM1z0-99" edge="1">
          <mxGeometry relative="1" as="geometry">
            <mxPoint x="620" y="120" as="sourcePoint" />
            <Array as="points">
              <mxPoint x="770" y="245" />
              <mxPoint x="770" y="60" />
              <mxPoint x="250" y="60" />
            </Array>
          </mxGeometry>
        </mxCell>
        <mxCell id="G8lySZ5ok2vdlaUdM1z0-84" style="edgeStyle=orthogonalEdgeStyle;rounded=0;orthogonalLoop=1;jettySize=auto;html=1;" parent="1" source="G8lySZ5ok2vdlaUdM1z0-4" target="G8lySZ5ok2vdlaUdM1z0-6" edge="1">
          <mxGeometry relative="1" as="geometry">
            <Array as="points" />
            <mxPoint x="430.00000000000045" y="330" as="targetPoint" />
          </mxGeometry>
        </mxCell>
        <mxCell id="G8lySZ5ok2vdlaUdM1z0-1" value="CU" style="rounded=0;whiteSpace=wrap;html=1;" parent="1" vertex="1">
          <mxGeometry x="270" y="220" width="60" height="50" as="geometry" />
        </mxCell>
        <mxCell id="G8lySZ5ok2vdlaUdM1z0-89" style="edgeStyle=orthogonalEdgeStyle;rounded=0;orthogonalLoop=1;jettySize=auto;html=1;dashed=1;" parent="1" source="G8lySZ5ok2vdlaUdM1z0-1" edge="1">
          <mxGeometry relative="1" as="geometry">
            <mxPoint x="300" y="160" as="targetPoint" />
            <mxPoint x="725" y="580" as="sourcePoint" />
            <Array as="points" />
          </mxGeometry>
        </mxCell>
        <mxCell id="G8lySZ5ok2vdlaUdM1z0-90" value="signals" style="edgeLabel;html=1;align=center;verticalAlign=middle;resizable=0;points=[];" parent="G8lySZ5ok2vdlaUdM1z0-89" vertex="1" connectable="0">
          <mxGeometry x="-0.1043" y="-2" relative="1" as="geometry">
            <mxPoint y="1" as="offset" />
          </mxGeometry>
        </mxCell>
        <mxCell id="G8lySZ5ok2vdlaUdM1z0-96" value="" style="group;rotation=0;" parent="1" vertex="1" connectable="0">
          <mxGeometry x="160" y="90" width="120" height="40" as="geometry" />
        </mxCell>
        <mxCell id="G8lySZ5ok2vdlaUdM1z0-97" style="edgeStyle=orthogonalEdgeStyle;rounded=0;orthogonalLoop=1;jettySize=auto;html=1;dashed=1;" parent="G8lySZ5ok2vdlaUdM1z0-96" target="G8lySZ5ok2vdlaUdM1z0-99" edge="1">
          <mxGeometry relative="1" as="geometry">
            <mxPoint x="-50" y="6.666666666666668" as="targetPoint" />
            <mxPoint x="-40" y="24" as="sourcePoint" />
          </mxGeometry>
        </mxCell>
        <mxCell id="G8lySZ5ok2vdlaUdM1z0-98" value="sel" style="edgeLabel;html=1;align=center;verticalAlign=middle;resizable=0;points=[];rotation=0;" parent="G8lySZ5ok2vdlaUdM1z0-97" vertex="1" connectable="0">
          <mxGeometry x="-0.2187" y="-2" relative="1" as="geometry">
            <mxPoint y="-1" as="offset" />
          </mxGeometry>
        </mxCell>
        <mxCell id="G8lySZ5ok2vdlaUdM1z0-99" value="" style="shape=trapezoid;perimeter=trapezoidPerimeter;whiteSpace=wrap;html=1;fixedSize=1;rotation=-180;movable=1;resizable=1;rotatable=1;deletable=1;editable=1;locked=0;connectable=1;" parent="G8lySZ5ok2vdlaUdM1z0-96" vertex="1">
          <mxGeometry y="8" width="120" height="32" as="geometry" />
        </mxCell>
        <mxCell id="G8lySZ5ok2vdlaUdM1z0-100" value="MUX" style="text;html=1;align=center;verticalAlign=middle;resizable=0;points=[];autosize=1;strokeColor=none;fillColor=none;rotation=0;" parent="G8lySZ5ok2vdlaUdM1z0-96" vertex="1">
          <mxGeometry x="35" y="10" width="50" height="30" as="geometry" />
        </mxCell>
        <mxCell id="G8lySZ5ok2vdlaUdM1z0-103" style="edgeStyle=orthogonalEdgeStyle;rounded=0;orthogonalLoop=1;jettySize=auto;html=1;exitX=0.5;exitY=0;exitDx=0;exitDy=0;" parent="1" source="G8lySZ5ok2vdlaUdM1z0-99" target="G8lySZ5ok2vdlaUdM1z0-13" edge="1">
          <mxGeometry relative="1" as="geometry" />
        </mxCell>
        <mxCell id="wq8xOA5Y23-_IPNCgSVE-46" style="edgeStyle=orthogonalEdgeStyle;rounded=0;orthogonalLoop=1;jettySize=auto;html=1;" edge="1" parent="1" source="wq8xOA5Y23-_IPNCgSVE-12" target="wq8xOA5Y23-_IPNCgSVE-33">
          <mxGeometry relative="1" as="geometry">
            <Array as="points">
              <mxPoint x="115" y="50" />
              <mxPoint x="48" y="50" />
            </Array>
          </mxGeometry>
        </mxCell>
        <mxCell id="wq8xOA5Y23-_IPNCgSVE-47" style="edgeStyle=orthogonalEdgeStyle;rounded=0;orthogonalLoop=1;jettySize=auto;html=1;exitX=0.5;exitY=1;exitDx=0;exitDy=0;" edge="1" parent="1" source="wq8xOA5Y23-_IPNCgSVE-12" target="wq8xOA5Y23-_IPNCgSVE-34">
          <mxGeometry relative="1" as="geometry">
            <Array as="points">
              <mxPoint x="108" y="180" />
              <mxPoint x="108" y="160" />
              <mxPoint x="115" y="160" />
              <mxPoint x="115" y="50" />
              <mxPoint x="-2" y="50" />
            </Array>
          </mxGeometry>
        </mxCell>
        <mxCell id="wq8xOA5Y23-_IPNCgSVE-48" style="edgeStyle=orthogonalEdgeStyle;rounded=0;orthogonalLoop=1;jettySize=auto;html=1;" edge="1" parent="1" source="wq8xOA5Y23-_IPNCgSVE-12" target="wq8xOA5Y23-_IPNCgSVE-35">
          <mxGeometry relative="1" as="geometry">
            <Array as="points">
              <mxPoint x="115" y="50" />
              <mxPoint x="-52" y="50" />
            </Array>
          </mxGeometry>
        </mxCell>
        <mxCell id="wq8xOA5Y23-_IPNCgSVE-106" style="edgeStyle=orthogonalEdgeStyle;rounded=0;orthogonalLoop=1;jettySize=auto;html=1;exitX=0.5;exitY=1;exitDx=0;exitDy=0;entryX=0.25;entryY=1;entryDx=0;entryDy=0;" edge="1" parent="1" source="wq8xOA5Y23-_IPNCgSVE-12" target="wq8xOA5Y23-_IPNCgSVE-98">
          <mxGeometry relative="1" as="geometry">
            <Array as="points">
              <mxPoint x="115" y="266" />
            </Array>
          </mxGeometry>
        </mxCell>
        <mxCell id="wq8xOA5Y23-_IPNCgSVE-12" value="PC" style="rounded=0;whiteSpace=wrap;html=1;" vertex="1" parent="1">
          <mxGeometry x="100" y="140" width="30" height="40" as="geometry" />
        </mxCell>
        <mxCell id="G8lySZ5ok2vdlaUdM1z0-17" value="Output" style="rounded=0;whiteSpace=wrap;html=1;" parent="1" vertex="1">
          <mxGeometry x="620" y="470" width="129" height="40" as="geometry" />
        </mxCell>
        <mxCell id="wq8xOA5Y23-_IPNCgSVE-33" value="+1" style="rounded=0;whiteSpace=wrap;html=1;" vertex="1" parent="1">
          <mxGeometry x="33" y="80" width="30" height="30" as="geometry" />
        </mxCell>
        <mxCell id="wq8xOA5Y23-_IPNCgSVE-34" value="+2" style="rounded=0;whiteSpace=wrap;html=1;" vertex="1" parent="1">
          <mxGeometry x="-10" y="80" width="30" height="30" as="geometry" />
        </mxCell>
        <mxCell id="wq8xOA5Y23-_IPNCgSVE-35" value="+4" style="rounded=0;whiteSpace=wrap;html=1;" vertex="1" parent="1">
          <mxGeometry x="-60" y="80" width="30" height="30" as="geometry" />
        </mxCell>
        <mxCell id="wq8xOA5Y23-_IPNCgSVE-37" value="" style="group" vertex="1" connectable="0" parent="1">
          <mxGeometry x="-120" y="150" width="193" height="30" as="geometry" />
        </mxCell>
        <mxCell id="wq8xOA5Y23-_IPNCgSVE-38" style="edgeStyle=orthogonalEdgeStyle;rounded=0;orthogonalLoop=1;jettySize=auto;html=1;dashed=1;" edge="1" parent="wq8xOA5Y23-_IPNCgSVE-37" target="wq8xOA5Y23-_IPNCgSVE-40">
          <mxGeometry relative="1" as="geometry">
            <mxPoint x="-21.444444444444446" y="-15" as="targetPoint" />
            <mxPoint y="15" as="sourcePoint" />
          </mxGeometry>
        </mxCell>
        <mxCell id="wq8xOA5Y23-_IPNCgSVE-39" value="sel" style="edgeLabel;html=1;align=center;verticalAlign=middle;resizable=0;points=[];rotation=0;" vertex="1" connectable="0" parent="wq8xOA5Y23-_IPNCgSVE-38">
          <mxGeometry x="-0.2187" y="-2" relative="1" as="geometry">
            <mxPoint as="offset" />
          </mxGeometry>
        </mxCell>
        <mxCell id="wq8xOA5Y23-_IPNCgSVE-40" value="" style="shape=trapezoid;perimeter=trapezoidPerimeter;whiteSpace=wrap;html=1;fixedSize=1;rotation=-180;movable=1;resizable=1;rotatable=1;deletable=1;editable=1;locked=0;connectable=1;" vertex="1" parent="wq8xOA5Y23-_IPNCgSVE-37">
          <mxGeometry x="41.62745098039216" width="151.37254901960785" height="30" as="geometry" />
        </mxCell>
        <mxCell id="wq8xOA5Y23-_IPNCgSVE-41" value="MUX" style="text;html=1;align=center;verticalAlign=middle;resizable=0;points=[];autosize=1;strokeColor=none;fillColor=none;rotation=0;" vertex="1" parent="wq8xOA5Y23-_IPNCgSVE-37">
          <mxGeometry x="94.65758998435054" width="50" height="30" as="geometry" />
        </mxCell>
        <mxCell id="wq8xOA5Y23-_IPNCgSVE-45" style="edgeStyle=orthogonalEdgeStyle;rounded=0;orthogonalLoop=1;jettySize=auto;html=1;" edge="1" parent="1" source="wq8xOA5Y23-_IPNCgSVE-40" target="wq8xOA5Y23-_IPNCgSVE-12">
          <mxGeometry relative="1" as="geometry">
            <Array as="points">
              <mxPoint x="-1" y="170" />
            </Array>
          </mxGeometry>
        </mxCell>
        <mxCell id="wq8xOA5Y23-_IPNCgSVE-71" style="edgeStyle=orthogonalEdgeStyle;rounded=0;orthogonalLoop=1;jettySize=auto;html=1;dashed=1;" edge="1" parent="1" target="G8lySZ5ok2vdlaUdM1z0-6">
          <mxGeometry relative="1" as="geometry">
            <mxPoint x="112.16" y="430" as="targetPoint" />
            <mxPoint x="190" y="500" as="sourcePoint" />
            <Array as="points" />
          </mxGeometry>
        </mxCell>
        <mxCell id="wq8xOA5Y23-_IPNCgSVE-73" value="latch acc" style="edgeLabel;html=1;align=center;verticalAlign=middle;resizable=0;points=[];" vertex="1" connectable="0" parent="wq8xOA5Y23-_IPNCgSVE-71">
          <mxGeometry x="-0.1412" y="3" relative="1" as="geometry">
            <mxPoint x="2" y="3" as="offset" />
          </mxGeometry>
        </mxCell>
        <mxCell id="wq8xOA5Y23-_IPNCgSVE-77" style="edgeStyle=orthogonalEdgeStyle;rounded=0;orthogonalLoop=1;jettySize=auto;html=1;exitX=0.5;exitY=1;exitDx=0;exitDy=0;entryX=0.75;entryY=1;entryDx=0;entryDy=0;" edge="1" parent="1" source="wq8xOA5Y23-_IPNCgSVE-35" target="wq8xOA5Y23-_IPNCgSVE-40">
          <mxGeometry relative="1" as="geometry">
            <Array as="points">
              <mxPoint x="-40" y="110" />
              <mxPoint x="-40" y="130" />
            </Array>
          </mxGeometry>
        </mxCell>
        <mxCell id="wq8xOA5Y23-_IPNCgSVE-80" style="edgeStyle=orthogonalEdgeStyle;rounded=0;orthogonalLoop=1;jettySize=auto;html=1;entryX=0.117;entryY=1;entryDx=0;entryDy=0;entryPerimeter=0;" edge="1" parent="1" source="wq8xOA5Y23-_IPNCgSVE-33" target="wq8xOA5Y23-_IPNCgSVE-40">
          <mxGeometry relative="1" as="geometry">
            <Array as="points">
              <mxPoint x="55" y="120" />
              <mxPoint x="55" y="120" />
            </Array>
          </mxGeometry>
        </mxCell>
        <mxCell id="wq8xOA5Y23-_IPNCgSVE-81" style="edgeStyle=orthogonalEdgeStyle;rounded=0;orthogonalLoop=1;jettySize=auto;html=1;entryX=0.531;entryY=0.067;entryDx=0;entryDy=0;entryPerimeter=0;" edge="1" parent="1" source="wq8xOA5Y23-_IPNCgSVE-34" target="wq8xOA5Y23-_IPNCgSVE-41">
          <mxGeometry relative="1" as="geometry">
            <Array as="points">
              <mxPoint y="130" />
              <mxPoint x="1" y="130" />
            </Array>
          </mxGeometry>
        </mxCell>
        <mxCell id="wq8xOA5Y23-_IPNCgSVE-87" style="edgeStyle=orthogonalEdgeStyle;rounded=0;orthogonalLoop=1;jettySize=auto;html=1;" edge="1" parent="1" source="G8lySZ5ok2vdlaUdM1z0-4" target="G8lySZ5ok2vdlaUdM1z0-10">
          <mxGeometry relative="1" as="geometry" />
        </mxCell>
        <mxCell id="wq8xOA5Y23-_IPNCgSVE-90" style="edgeStyle=orthogonalEdgeStyle;rounded=0;orthogonalLoop=1;jettySize=auto;html=1;" edge="1" parent="1" source="wq8xOA5Y23-_IPNCgSVE-88" target="G8lySZ5ok2vdlaUdM1z0-1">
          <mxGeometry relative="1" as="geometry" />
        </mxCell>
        <mxCell id="wq8xOA5Y23-_IPNCgSVE-88" value="IR" style="rounded=0;whiteSpace=wrap;html=1;" vertex="1" parent="1">
          <mxGeometry x="414" y="225" width="30" height="40" as="geometry" />
        </mxCell>
        <mxCell id="wq8xOA5Y23-_IPNCgSVE-92" style="edgeStyle=orthogonalEdgeStyle;rounded=0;orthogonalLoop=1;jettySize=auto;html=1;dashed=1;" edge="1" parent="1" target="G8lySZ5ok2vdlaUdM1z0-12">
          <mxGeometry relative="1" as="geometry">
            <mxPoint x="305" y="540" as="targetPoint" />
            <mxPoint x="325" y="510" as="sourcePoint" />
            <Array as="points" />
          </mxGeometry>
        </mxCell>
        <mxCell id="wq8xOA5Y23-_IPNCgSVE-93" value="latch ar" style="edgeLabel;html=1;align=center;verticalAlign=middle;resizable=0;points=[];" vertex="1" connectable="0" parent="wq8xOA5Y23-_IPNCgSVE-92">
          <mxGeometry x="-0.1412" y="3" relative="1" as="geometry">
            <mxPoint x="2" y="3" as="offset" />
          </mxGeometry>
        </mxCell>
        <mxCell id="wq8xOA5Y23-_IPNCgSVE-95" value="" style="group;rotation=0;" vertex="1" connectable="0" parent="1">
          <mxGeometry x="10" y="260" width="140" height="30" as="geometry" />
        </mxCell>
        <mxCell id="wq8xOA5Y23-_IPNCgSVE-96" style="edgeStyle=orthogonalEdgeStyle;rounded=0;orthogonalLoop=1;jettySize=auto;html=1;dashed=1;" edge="1" parent="wq8xOA5Y23-_IPNCgSVE-95" target="wq8xOA5Y23-_IPNCgSVE-98">
          <mxGeometry relative="1" as="geometry">
            <mxPoint x="-58.33333333333334" y="5.000000000000001" as="targetPoint" />
            <mxPoint x="-46.66666666666667" y="18" as="sourcePoint" />
          </mxGeometry>
        </mxCell>
        <mxCell id="wq8xOA5Y23-_IPNCgSVE-97" value="sel" style="edgeLabel;html=1;align=center;verticalAlign=middle;resizable=0;points=[];rotation=0;" vertex="1" connectable="0" parent="wq8xOA5Y23-_IPNCgSVE-96">
          <mxGeometry x="-0.2187" y="-2" relative="1" as="geometry">
            <mxPoint y="-1" as="offset" />
          </mxGeometry>
        </mxCell>
        <mxCell id="wq8xOA5Y23-_IPNCgSVE-98" value="" style="shape=trapezoid;perimeter=trapezoidPerimeter;whiteSpace=wrap;html=1;fixedSize=1;rotation=-180;movable=1;resizable=1;rotatable=1;deletable=1;editable=1;locked=0;connectable=1;" vertex="1" parent="wq8xOA5Y23-_IPNCgSVE-95">
          <mxGeometry y="6" width="140" height="24" as="geometry" />
        </mxCell>
        <mxCell id="wq8xOA5Y23-_IPNCgSVE-99" value="MUX" style="text;html=1;align=center;verticalAlign=middle;resizable=0;points=[];autosize=1;strokeColor=none;fillColor=none;rotation=0;" vertex="1" parent="wq8xOA5Y23-_IPNCgSVE-95">
          <mxGeometry x="44.99606060606062" y="3" width="50" height="30" as="geometry" />
        </mxCell>
        <mxCell id="wq8xOA5Y23-_IPNCgSVE-101" style="edgeStyle=orthogonalEdgeStyle;rounded=0;orthogonalLoop=1;jettySize=auto;html=1;entryX=0.75;entryY=1;entryDx=0;entryDy=0;" edge="1" parent="1" source="wq8xOA5Y23-_IPNCgSVE-99" target="G8lySZ5ok2vdlaUdM1z0-4">
          <mxGeometry relative="1" as="geometry">
            <Array as="points">
              <mxPoint x="68" y="300" />
              <mxPoint x="160" y="300" />
            </Array>
          </mxGeometry>
        </mxCell>
        <mxCell id="wq8xOA5Y23-_IPNCgSVE-107" style="edgeStyle=orthogonalEdgeStyle;rounded=0;orthogonalLoop=1;jettySize=auto;html=1;dashed=1;" edge="1" parent="1" target="wq8xOA5Y23-_IPNCgSVE-12">
          <mxGeometry relative="1" as="geometry">
            <mxPoint x="130" y="210" as="targetPoint" />
            <mxPoint x="200" y="170" as="sourcePoint" />
            <Array as="points">
              <mxPoint x="160" y="170" />
              <mxPoint x="160" y="170" />
            </Array>
          </mxGeometry>
        </mxCell>
        <mxCell id="wq8xOA5Y23-_IPNCgSVE-113" value="latch pc" style="edgeLabel;html=1;align=center;verticalAlign=middle;resizable=0;points=[];" vertex="1" connectable="0" parent="wq8xOA5Y23-_IPNCgSVE-107">
          <mxGeometry x="-0.1362" y="1" relative="1" as="geometry">
            <mxPoint x="2" y="-6" as="offset" />
          </mxGeometry>
        </mxCell>
      </root>
    </mxGraphModel>
  </diagram>
</mxfile>
